# AST/ASF file generated using VICON BodyLanguage
# -----------------------------------------------
:version 1.10
:name VICON
:units
  mass 1.0
  length 0.45
  angle deg
:documentation
   .ast/.asf automatically generated from VICON data using
   VICON BodyBuilder and BodyLanguage model FoxedUp or BRILLIANT.MOD
:root
   order TX TY TZ RX RY RZ
   axis XYZ
   position 0 0 0  
   orientation 0 0 0 
:bonedata
  begin
     id 1 
     name lhipjoint
     direction 0.602128 -0.715006 0.355257 
     length 2.21237 
     axis 0 0 0  XYZ
  end
  begin
     id 2 
     name lfemur
     direction 0.34202 -0.939693 0  
     length 6.71649  
     axis 0 0 20  XYZ
    dof rx ry rz
    limits (-160.0 20.0)
           (-70.0 70.0)
           (-60.0 70.0)
  end
  begin
     id 3 
     name ltibia
     direction 0.34202 -0.939693 0   
     length 6.97123   
     axis 0 0 20   XYZ
    dof rx
    limits (-10.0 170.0)
  end
  begin
     id 4 
     name lfoot
     direction 0.0655697 -0.180151 0.981451   
     length 1.80924   
     axis -90 7.62852e-016 20   XYZ
    dof rx rz
    limits (-45.0 90.0)
           (-70.0 20.0)
  end
  begin
     id 5 
     name ltoes
     direction 1.53545e-011 -4.21827e-011 1   
     length 0.916331   
     axis -90 7.62852e-016 20   XYZ
    dof rx
    limits (-90.0 20.0)
  end
  begin
     id 6 
     name rhipjoint
     direction -0.625414 -0.698792 0.347201   
     length 2.2637  
     axis 0 0 0  XYZ 
  end
  begin
     id 7 
     name rfemur
     direction -0.34202 -0.939693 0   
     length 7.07595   
     axis 0 0 -20   XYZ
    dof rx ry rz
    limits (-160.0 20.0)
           (-70.0 70.0)
           (-70.0 60.0)
  end
  begin
     id 8 
     name rtibia
     direction -0.34202 -0.939693 0   
     length 7.22924   
     axis 0 0 -20   XYZ
    dof rx
    limits (-10.0 170.0)
 end
 begin
     id 9 
     name rfoot
     direction -0.0766747 -0.210662 0.974547   
     length 1.98482  
     axis -90 -7.62852e-016 -20   XYZ
    dof rx rz
    limits (-45.0 90.0)
           (-20.0 70.0)
  end
  begin
     id 10 
     name rtoes
     direction -1.53532e-011 -4.21867e-011 1   
     length 0.999842   
     axis -90 -7.62852e-016 -20   XYZ
    dof rx
    limits (-90.0 20.0)
  end
  begin
     id 11 
     name lowerback
     direction -0.0224668 0.997354 -0.0691422   
     length 2.09945   
     axis 0 0 0   XYZ
    dof rx ry rz
    limits (-20.0 45.0)
           (-30.0 30.0)
           (-30.0 30.0)
  end
  begin
     id 12 
     name upperback
     direction 0.0134698 0.998451 -0.0539888   
     length 2.09758   
     axis 0 0 0   XYZ
    dof rx ry rz
    limits (-20.0 45.0)
           (-30.0 30.0)
           (-30.0 30.0)
  end
  begin
     id 13 
     name thorax
     direction 0.0241905 0.99948 -0.0213333   
     length 2.10428   
     axis 0 0 0   XYZ
    dof rx ry rz
    limits (-20.0 45.0)
           (-30.0 30.0)
           (-30.0 30.0)
  end
  begin
     id 14 
     name lowerneck
     direction -0.00866847 0.995978 0.0891737   
     length 1.3959   
     axis 0 0 0   XYZ
    dof rx ry rz
    limits (-20.0 45.0)
           (-30.0 30.0)
           (-30.0 30.0)
  end
  begin
     id 15 
     name upperneck
     direction 0.0680679 0.992203 0.104404   
     length 1.39452   
     axis 0 0 0   XYZ
    dof rx ry rz
    limits (-20.0 45.0)
           (-30.0 30.0)
           (-30.0 30.0)
  end
  begin
     id 16
     name head
     direction 0.0242216 0.999358 0.0264054  
     length 1.40433  
     axis 0 0 0   XYZ
    dof rx ry rz
    limits (-20.0 45.0)
           (-30.0 30.0)
           (-30.0 30.0)
  end
  begin
     id 17 
     name lclavicle
     direction 0.929368 0.362991 -0.0671771  
     length 3.04887  
     axis 0 0 0   XYZ
    dof ry rz
    limits (-20.0 10.0)
           (0.0 20.0)
  end
  begin
     id 18 
     name lhumerus
     direction 1 -4.48967e-011 -7.13741e-028   
     length 4.77195   
     axis -180 -30 -90   XYZ
    dof rx ry rz
    limits (-60.0 90.0)
           (-90.0 90.0)
           (-90.0 90.0)
  end
  begin
     id 19
     name lradius
     direction 1 -4.48977e-011 3.60404e-027   
     length 2.98444   
     axis -180 -30 -90   XYZ
    dof rx
    limits (-10.0 170.0)
  end
  begin
     id 20
     name lwrist
     direction 1 -4.48997e-011 7.54877e-027   
     length 1.49222   
     axis -7.18178e-015 90 90   XYZ
    dof ry
    limits (-180.0 0.0)
 end
  begin
     id 21 
     name lhand
     direction 1 -4.489e-011 1.51105e-026   
     length 0.992285   
     axis -9.63605e-015 90 90   XYZ
    dof rx rz
    limits (-90.0 90.0)
           (-45.0 45.0)
  end
  begin
     id 22 
     name lfingers
     direction 1 -4.48998e-011 3.01948e-026   
     length 0.800006   
     axis -1.92718e-014 90 90   XYZ
    dof rx
    limits (0.0 90.0)
  end
  begin
     id 23
     name lthumb
     direction 0.707107 -6.34881e-011 0.707107   
     length 1.14865   
     axis -90 45 -3.53137e-014   XYZ
    dof rx rz
    limits (-45.0 45.0)
           (-45.0 45.0)
  end
  begin
     id 24 
     name rclavicle
     direction -0.945672 0.324529 0.0196374   
     length 3.4236  
     axis 0 0 0   XYZ 
    dof ry rz
    limits (-10.0 20.0)
           (-20.0 0.0)
  end
  begin
     id 25 
     name rhumerus
     direction -1 -4.4896e-011 1.02757e-029  
     length 4.62052   
     axis -180 30 90   XYZ
    dof rx ry rz
    limits (-90.0 60.0)
           (-90.0 90.0)
           (-90.0 90.0)
  end
  begin
     id 26 
     name rradius
     direction -1 -4.48982e-011 3.85962e-027   
     length 2.95332   
     axis -180 30 90   XYZ
    dof rx
    limits (-10.0 170.0)
  end
  begin
     id 27 
     name rwrist
     direction -1 -4.48961e-011 7.55118e-027   
     length 1.47666   
     axis -7.18178e-015 -90 -90   XYZ
    dof ry
    limits (-180.0 0.0)
  end
  begin
     id 28
     name rhand
     direction -1 -4.48984e-011 1.50994e-026   
     length 0.990956   
     axis -9.63605e-015 -90 -90   XYZ
    dof rx rz
    limits (-90.0 90.0)
           (-45.0 45.0)
  end
  begin
     id 29
     name rfingers
     direction -1 -4.4892e-011 3.02158e-026   
     length 0.798934   
     axis -1.92718e-014 -90 -90   XYZ
    dof rx
    limits (0.0 90.0)
  end
  begin
     id 30
     name rthumb
     direction -0.707107 -6.34916e-011 0.707107   
     length 1.14711   
     axis -90 -45 3.53137e-014   XYZ
    dof rx rz
    limits (-45.0 45.0)
           (-45.0 45.0)
  end
:hierarchy
  begin
    root lhipjoint rhipjoint lowerback
    lhipjoint lfemur
    lfemur ltibia
    ltibia lfoot
    lfoot ltoes
    rhipjoint rfemur
    rfemur rtibia
    rtibia rfoot
    rfoot rtoes
    lowerback upperback
    upperback thorax
    thorax lowerneck lclavicle rclavicle
    lowerneck upperneck
    upperneck head
    lclavicle lhumerus
    lhumerus lradius
    lradius lwrist
    lwrist lhand lthumb
    lhand lfingers
    rclavicle rhumerus
    rhumerus rradius
    rradius rwrist
    rwrist rhand rthumb
    rhand rfingers
  end

#!OML:ASF H:\ManfredObstacles\Project 1\Capture day 1\Session 1\Male.ASF
:FULLY-SPECIFIED
:DEGREES
193
root -13.7007 16.2849 23.2777 -170.273 -7.98349 -182.47
lowerback -7.3795 -3.63599 -5.05535
upperback 1.89928 -4.38755 0.138436
thorax 6.5306 -2.36198 2.3952
lowerneck 1.75626 -3.14272 -4.89796
upperneck -9.18347 -3.18604 10.587
head -2.72566 -1.63106 4.08787
rclavicle -8.52289e-015 1.19271e-014
rhumerus -42.1462 -24.2245 -70.512
rradius 25.6289
rwrist 34.3466
rhand -1.43624 -5.94464
rfingers 7.12502
rthumb 24.214 -34.4359
lclavicle -8.52289e-015 1.19271e-014
lhumerus -21.5218 4.38404 86.3661
lradius 21.8283
lwrist -24.1867
lhand -6.61525 9.72096
lfingers 7.12502
lthumb 19.2408 38.7891
rfemur -39.0823 -9.56778 21.0508
rtibia 26.8225
rfoot -14.751 3.39534
rtoes 13.4458
lfemur -0.821753 0.903838 -23.1654
ltibia 7.82309
lfoot -0.812462 -17.3807
ltoes 23.0429
194
root -13.6621 16.2766 23.0547 -170.248 -8.25507 -182.394
lowerback -7.69617 -3.78746 -5.02069
upperback 1.94545 -4.57927 0.259369
thorax 6.78511 -2.46088 2.45263
lowerneck 1.57033 -3.1541 -4.96425
upperneck -9.19108 -3.19211 10.6067
head -2.69448 -1.62529 4.10165
rclavicle -1.82136e-014 1.2921e-015
rhumerus -42.5211 -24.7401 -69.8498
rradius 25.2471
rwrist 34.954
rhand -1.16873 -6.10522
rfingers 7.12502
rthumb 24.4705 -34.5621
lclavicle -1.82136e-014 1.2921e-015
lhumerus -21.4751 4.66728 86.5484
lradius 21.722
lwrist -24.3818
lhand -6.47432 9.8467
lfingers 7.12502
lthumb 19.3763 38.9013
rfemur -38.6583 -9.43044 21.2426
rtibia 26.6422
rfoot -15.0408 2.66609
rtoes 19.6148
lfemur 1.02475 -0.297328 -22.8471
ltibia 5.76735
lfoot -0.515082 -16.121
ltoes 22.4417
195
root -13.6244 16.2724 22.8307 -170.174 -8.40104 -182.42
lowerback -7.98427 -3.89041 -4.96443
upperback 1.91556 -4.70742 0.285154
thorax 6.9268 -2.52258 2.4115
lowerneck 1.37087 -3.17506 -5.01978
upperneck -9.02868 -3.22408 10.6828
head -2.60777 -1.63417 4.12821
rclavicle -6.89534e-014 -3.08116e-015
rhumerus -43.0517 -25.3857 -69.1323
rradius 24.8823
rwrist 35.6321
rhand -1.06406 -6.42398
rfingers 7.12502
rthumb 24.5708 -34.8672
lclavicle -6.89534e-014 -3.08116e-015
lhumerus -21.6157 4.86171 86.65
lradius 21.6971
lwrist -24.5617
lhand -6.23912 10.1065
lfingers 7.12502
lthumb 19.6025 39.1383
rfemur -38.1378 -9.00282 21.1821
rtibia 26.8362
rfoot -14.5604 1.88843
rtoes 25.7936
lfemur 2.97719 -1.39909 -22.7106
ltibia 3.62382
lfoot -0.36278 -14.735
ltoes 19.423
196
root -13.5858 16.278 22.607 -170.179 -8.32494 -182.164
lowerback -8.14739 -3.88936 -4.58584
upperback 1.81249 -4.73957 0.342901
thorax 6.88462 -2.52036 2.25094
lowerneck 1.29995 -3.20003 -5.05019
upperneck -8.8189 -3.27022 10.7905
head -2.52728 -1.65683 4.16203
rclavicle 2.53326e-014 -5.36719e-015
rhumerus -43.6833 -25.9335 -68.4693
rradius 24.5903
rwrist 36.0651
rhand -1.11962 -6.66581
rfingers 7.12502
rthumb 24.5175 -35.1163
lclavicle 2.53326e-014 -5.36719e-015
lhumerus -21.9802 5.07801 86.6465
lradius 21.7
lwrist -24.7552
lhand -6.13581 10.1969
lfingers 7.12502
lthumb 19.7018 39.2185
rfemur -37.5931 -8.43762 21.4671
rtibia 27.284
rfoot -14.9579 1.44808
rtoes 29.9098
lfemur 4.77066 -2.23401 -22.3082
ltibia 1.92312
lfoot -0.291249 -13.3558
ltoes 14.9922
197
root -13.5435 16.2881 22.3868 -170.282 -8.12062 -181.501
lowerback -8.15975 -3.83481 -3.888
upperback 1.68623 -4.75047 0.561864
thorax 6.71633 -2.49714 2.09619
lowerneck 1.36938 -3.21005 -5.02401
upperneck -8.74065 -3.30139 10.7588
head -2.51462 -1.67659 4.14851
rclavicle -1.24116e-014 4.17448e-015
rhumerus -44.2417 -26.3948 -67.8049
rradius 24.319
rwrist 36.4837
rhand -1.1993 -6.773
rfingers 7.12502
rthumb 24.4412 -35.2338
lclavicle -1.24116e-014 4.17448e-015
lhumerus -22.3799 5.72323 86.5953
lradius 21.5565
lwrist -25.2484
lhand -6.19582 10.0937
lfingers 7.12502
lthumb 19.6441 39.1212
rfemur -37.1328 -7.70776 22.2082
rtibia 27.9206
rfoot -14.232 1.44432
rtoes 35.9622
lfemur 5.38307 -2.86926 -21.3978
ltibia 2.34185
lfoot -0.175974 -12.5074
ltoes 15.0347
198
root -13.4964 16.2954 22.167 -170.377 -7.60856 -180.888
lowerback -8.18345 -3.7545 -3.38139
upperback 1.61033 -4.71185 0.846033
thorax 6.6278 -2.46224 2.11952
lowerneck 1.41473 -3.16737 -5.08487
upperneck -8.76531 -3.25985 10.6706
head -2.53371 -1.65624 4.13239
rclavicle -3.74771e-014 -3.57812e-015
rhumerus -44.5569 -27.0606 -66.9454
rradius 23.8903
rwrist 37.3994
rhand -1.27736 -6.68466
rfingers 7.12502
rthumb 24.3663 -35.1556
lclavicle -3.74771e-014 -3.57812e-015
lhumerus -22.6603 7.09138 86.5009
lradius 21.1834
lwrist -26.3225
lhand -6.25315 10.0791
lfingers 7.12502
lthumb 19.589 39.1123
rfemur -36.6883 -6.81338 22.943
rtibia 28.5961
rfoot -14.2501 1.54865
rtoes 37.6926
lfemur 4.99166 -3.2028 -20.5593
ltibia 4.69192
lfoot -0.708928 -12.1227
ltoes 15.1462
199
root -13.4486 16.3021 21.9435 -170.422 -6.78018 -180.553
lowerback -8.33431 -3.67442 -3.21651
upperback 1.60465 -4.63201 1.072
thorax 6.70817 -2.42242 2.26699
lowerneck 1.25308 -3.06885 -5.19372
upperneck -8.68112 -3.14099 10.6252
head -2.49048 -1.58903 4.13052
rclavicle -1.16444e-014 -9.59136e-015
rhumerus -44.5689 -27.6735 -66.1891
rradius 23.4122
rwrist 38.329
rhand -1.32448 -6.47461
rfingers 7.12502
rthumb 24.3212 -34.9516
lclavicle -1.16444e-014 -9.59136e-015
lhumerus -22.9602 8.71167 86.3304
lradius 20.8024
lwrist -27.4281
lhand -6.24165 10.1267
lfingers 7.12502
lthumb 19.6 39.1587
rfemur -36.167 -5.73039 23.3356
rtibia 29.2149
rfoot -14.1926 1.65907
rtoes 38.5189
lfemur 4.42601 -3.26704 -20.128
ltibia 7.56422
lfoot -1.41351 -11.672
ltoes 14.065
200
root -13.4042 16.3149 21.7198 -170.416 -6.07591 -180.231
lowerback -8.53847 -3.6346 -2.93744
upperback 1.58187 -4.61483 1.23647
thorax 6.79017 -2.40746 2.27475
lowerneck 1.13258 -2.99969 -5.2747
upperneck -8.5608 -3.05334 10.6948
head -2.43903 -1.54145 4.15992
rclavicle 1.59338e-015 -7.4917e-015
rhumerus -44.511 -27.8446 -65.8831
rradius 23.2389
rwrist 38.5543
rhand -1.26811 -6.43952
rfingers 7.12502
rthumb 24.3752 -34.9092
lclavicle 1.59338e-015 -7.4917e-015
lhumerus -23.4368 9.70362 86.1138
lradius 20.5812
lwrist -27.8295
lhand -6.13647 10.0114
lfingers 7.12502
lthumb 19.7012 39.0331
rfemur -35.6514 -4.97253 23.7536
rtibia 29.7585
rfoot -13.6478 2.10747
rtoes 41.242
lfemur 3.75188 -3.453 -19.718
ltibia 10.5543
lfoot -1.50395 -10.9645
ltoes 14.9688
201
root -13.3537 16.3311 21.496 -170.314 -5.66702 -179.95
lowerback -8.8227 -3.6762 -2.67868
upperback 1.50209 -4.70252 1.37198
thorax 6.86355 -2.44327 2.24435
lowerneck 1.36655 -2.99146 -5.45352
upperneck -8.62645 -3.03718 10.9215
head -2.49058 -1.54351 4.26413
rclavicle -6.41018e-014 1.12313e-014
rhumerus -44.5221 -27.7736 -65.8348
rradius 23.3447
rwrist 38.3158
rhand -1.10604 -6.54852
rfingers 7.12502
rthumb 24.5306 -34.9972
lclavicle -6.41018e-014 1.12313e-014
lhumerus -24.0237 10.2933 85.8791
lradius 20.3829
lwrist -27.9468
lhand -6.06103 9.86905
lfingers 7.12502
lthumb 19.7737 38.8832
rfemur -35.1945 -4.76324 24.3078
rtibia 30.2086
rfoot -12.9105 2.59717
rtoes 44.078
lfemur 2.8919 -4.07072 -19.2854
ltibia 13.5728
lfoot -1.25554 -10.0794
ltoes 15.3701
202
root -13.294 16.3473 21.2721 -170.18 -5.34909 -179.834
lowerback -9.14449 -3.77607 -2.64516
upperback 1.43558 -4.84019 1.46645
thorax 6.99135 -2.51178 2.28506
lowerneck 1.53536 -3.02067 -5.64941
upperneck -8.61798 -3.08633 11.0916
head -2.50484 -1.57512 4.3527
rclavicle 4.87892e-014 1.56543e-014
rhumerus -44.3614 -27.2623 -66.2015
rradius 23.6421
rwrist 37.5603
rhand -0.811382 -6.53842
rfingers 7.12502
rthumb 24.813 -34.9486
lclavicle 4.87892e-014 1.56543e-014
lhumerus -24.5367 10.7525 85.6252
lradius 20.1638
lwrist -28.0815
lhand -5.75139 9.88326
lfingers 7.12502
lthumb 20.0713 38.8665
rfemur -34.714 -4.74224 24.7789
rtibia 30.5564
rfoot -12.276 3.19878
rtoes 41.6946
lfemur 1.87639 -4.55381 -18.9831
ltibia 16.7319
lfoot -0.807312 -9.43223
ltoes 13.556
203
root -13.2313 16.3651 21.0502 -170.15 -4.99761 -179.982
lowerback -9.33465 -3.88374 -2.83841
upperback 1.40063 -4.95258 1.4123
thorax 7.08249 -2.57272 2.30657
lowerneck 1.4378 -3.05981 -5.6906
upperneck -8.31701 -3.16683 11.1746
head -2.3905 -1.61422 4.37943
rclavicle -7.97375e-014 5.64051e-015
rhumerus -44.1669 -26.1588 -67.1329
rradius 24.287
rwrist 36.1535
rhand -0.591357 -6.49383
rfingers 7.12502
rthumb 25.0238 -34.8747
lclavicle -7.97375e-014 5.64051e-015
lhumerus -24.9716 10.7114 85.386
lradius 20.0073
lwrist -28.0714
lhand -5.20841 10.0928
lfingers 7.12502
lthumb 20.5932 39.0204
rfemur -34.0588 -4.74655 24.9538
rtibia 30.8085
rfoot -11.7547 3.98549
rtoes 39.0999
lfemur 0.765867 -4.84535 -18.9487
ltibia 20.1695
lfoot -0.0263578 -8.79149
ltoes 11.4536
204
root -13.1664 16.3805 20.8283 -170.319 -4.72494 -180.245
lowerback -9.30589 -4.00941 -3.11322
upperback 1.36007 -5.07662 1.25397
thorax 7.04148 -2.6391 2.27621
lowerneck 1.52949 -3.06953 -5.58778
upperneck -8.0823 -3.19995 11.2536
head -2.33429 -1.639 4.3847
rclavicle 1.36626e-014 -9.2e-015
rhumerus -44.2356 -25.1955 -68.051
rradius 25.0547
rwrist 34.972
rhand -0.591956 -6.56972
rfingers 7.12502
rthumb 25.0233 -34.9507
lclavicle 1.36626e-014 -9.2e-015
lhumerus -25.5098 10.5622 85.0802
lradius 19.9769
lwrist -28.3769
lhand -4.72142 10.222
lfingers 7.12502
lthumb 21.0611 39.0983
rfemur -33.0884 -4.90802 24.9988
rtibia 30.9504
rfoot -11.5775 4.84031
rtoes 36.7497
lfemur -0.352646 -4.93185 -18.9956
ltibia 23.9829
lfoot 1.41657 -7.96481
ltoes 11.2898
205
root -13.1038 16.3972 20.6057 -170.625 -4.44311 -180.224
lowerback -9.20554 -4.08217 -3.05798
upperback 1.39116 -5.17639 1.16778
thorax 7.01085 -2.68372 2.1444
lowerneck 1.6456 -3.09537 -5.57369
upperneck -8.01052 -3.23709 11.3796
head -2.3269 -1.66491 4.42239
rclavicle 5.09852e-014 -1.22501e-014
rhumerus -44.211 -24.5325 -68.7983
rradius 25.6668
rwrist 34.045
rhand -0.665052 -6.56264
rfingers 7.12502
rthumb 24.9532 -34.9534
lclavicle 5.09852e-014 -1.22501e-014
lhumerus -25.9169 10.7152 84.7067
lradius 19.8177
lwrist -29.1379
lhand -4.46054 9.95091
lfingers 7.12502
lthumb 21.3117 38.7991
rfemur -31.9001 -5.27266 25.3801
rtibia 30.9739
rfoot -11.5353 5.81523
rtoes 32.583
lfemur -1.61047 -4.63616 -18.7071
ltibia 28.1607
lfoot 3.29875 -7.14132
ltoes 9.86408
